{"title":"Maccheroni AKA Macaroni (Ettore Scola, 1985)","uid":13295687,"size":1733779488,"categoryP":"video","categoryS":"movies","magnet":"?xt=urn:btih:fdef9202789ac3d741b15b6625ff534da7db1ea2&amp;dn=Maccheroni+AKA+Macaroni+%28Ettore+Scola%2C+1985%29&amp;tr=udp%3A%2F%2Ftracker.leechers-paradise.org%3A6969&amp;tr=udp%3A%2F%2Fzer0day.ch%3A1337&amp;tr=udp%3A%2F%2Fopen.demonii.com%3A1337&amp;tr=udp%3A%2F%2Ftracker.coppersurfer.tk%3A6969&amp;tr=udp%3A%2F%2Fexodus.desync.com%3A6969","seeders":2,"leechers":0,"uploader":"moonflux","files":1,"time":1453627313,"description":"A businessman from the United States returns to Italy for the first time in four decades only to discover that an old girlfriend of his, along with her brother, have involved him in a massive hoax.\r\n\r\nMy rip.\r\n\r\nGeneral\r\nUnique ID                                : 210377522923974468388512283494939015913 (0x9E453CB2C059D294B9254D581232BAE9)\r\nComplete name                            : Maccheroni.AKA.Macaroni.1985.DVDRip.x264.mkv\r\nFormat                                   : Matroska\r\nFormat version                           : Version 4 / Version 2\r\nFile size                                : 1.61 GiB\r\nDuration                                 : 1h 42mn\r\nOverall bit rate                         : 2 258 Kbps\r\nEncoded date                             : UTC 2016-01-24 04:21:46\r\nWriting application                      : mkvmerge v8.6.1 ('Flying') 64bit\r\nWriting library                          : libebml v1.3.3 + libmatroska v1.4.4\r\n\r\nVideo\r\nID                                       : 1\r\nFormat                                   : AVC\r\nFormat/Info                              : Advanced Video Codec\r\nFormat profile                           :   \r\nFormat settings, CABAC                   : Yes\r\nFormat settings, ReFrames                : 12 frames\r\nCodec ID                                 : V_MPEG4/ISO/AVC\r\nDuration                                 : 1h 42mn\r\nBit rate                                 : 2 000 Kbps\r\nWidth                                    : 676 pixels\r\nHeight                                   : 566 pixels\r\nDisplay aspect ratio                     : 5:3\r\nOriginal display aspect ratio            : 5:3\r\nFrame rate mode                          : Constant\r\nFrame rate                               : 25.000 fps\r\nColor space                              : YUV\r\nChroma subsampling                       : 4:2:0\r\nBit depth                                : 8 bits\r\nScan type                                : Progressive\r\nBits/(Pixel*Frame)                       : 0.209\r\nStream size                              : 1.43 GiB (89%)\r\nWriting library                          : x264 core 148 r2638 7599210\r\nEncoding settings                        : cabac=1 / ref=12 / deblock=1:-3:-3 / analyse=0x3:0x133 / me=umh / subme=9 / psy=1 / psy_rd=1.00:0.15 / mixed_ref=1 / me_range=32 / chroma_me=1 / trellis=2 / 8x8dct=1 / cqm=0 / deadzone=21,11 / fast_pskip=0 / chroma_qp_offset=-3 / threads=12 / lookahead_threads=3 / sliced_threads=0 / nr=0 / decimate=0 / interlaced=0 / bluray_compat=0 / constrained_intra=0 / bframes=10 / b_pyramid=2 / b_adapt=2 / b_bias=0 / direct=3 / weightb=1 / open_gop=0 / weightp=2 / keyint=250 / keyint_min=25 / scenecut=40 / intra_refresh=0 / rc_lookahead=60 / rc=2pass / mbtree=0 / bitrate=2000 / ratetol=3.0 / qcomp=0.60 / qpmin=0 / qpmax=69 / qpstep=4 / cplxblur=20.0 / qblur=0.5 / vbv_maxrate=14000 / vbv_bufsize=14000 / nal_hrd=none / filler=0 / ip_ratio=1.40 / pb_ratio=1.30 / aq=1:1.00\r\nDefault                                  : Yes\r\nForced                                   : No\r\n\r\nAudio\r\nID                                       : 2\r\nFormat                                   : AC-3\r\nFormat/Info                              : Audio Coding 3\r\nMode extension                           : CM (complete main)\r\nFormat settings, Endianness              : Big\r\nCodec ID                                 : A_AC3\r\nDuration                                 : 1h 42mn\r\nBit rate mode                            : Constant\r\nBit rate                                 : 256 Kbps\r\nChannel(s)                               : 2 channels\r\nChannel positions                        : Front: L R\r\nSampling rate                            : 48.0 KHz\r\nFrame rate                               : 31.250 fps (1536 spf)\r\nCompression mode                         : Lossy\r\nStream size                              : 188 MiB (11%)\r\nLanguage                                 : Italian\r\nDefault                                  : Yes\r\nForced                                   : No","torrent":{"xt":"urn:btih:fdef9202789ac3d741b15b6625ff534da7db1ea2","amp;dn":"Maccheroni+AKA+Macaroni+%28Ettore+Scola%2C+1985%29","amp;tr":["udp%3A%2F%2Ftracker.leechers-paradise.org%3A6969","udp%3A%2F%2Fzer0day.ch%3A1337","udp%3A%2F%2Fopen.demonii.com%3A1337","udp%3A%2F%2Ftracker.coppersurfer.tk%3A6969","udp%3A%2F%2Fexodus.desync.com%3A6969"],"infoHash":"fdef9202789ac3d741b15b6625ff534da7db1ea2","infoHashBuffer":{"type":"Buffer","data":[253,239,146,2,120,154,195,215,65,177,91,102,37,255,83,77,167,219,30,162]},"announce":[],"urlList":[]}}